#!OML:ASF F:\VICON\USERDATA\INSTALL\rory3\rory3.ASF
:FULLY-SPECIFIED
:DEGREES
43
root 0.5999103049757817 17.79193595357795 1.7311931134086826 -0.8123281370268929 1.2831304956168632 2.072198996581729
lfemur 12.741431302905555 -2.884508721039588 -27.17218358790098
ltibia 15.498019265073065
lfoot -8.958149159128848 -4.308640341877345
ltoes -4.151207110973002
rfemur -26.062812840548563 6.892765905902018 17.36778709713466
rtibia 20.28101562412512
rfoot -7.083675606137337 -13.319192331266784
rtoes -0.07644336490229309
lowerback 10.105105854868732 -1.2076532553354742 -3.4734260993248522
upperback 0.3838738199242222 -1.711039046259069 1.3854611117237323
thorax -4.871134957458933 -0.9289857636423544 3.704113695923801
lowerneck -16.003225455610806 -2.528929657342029 -2.79394885667227
upperneck 22.49589128595055 -3.0740114016199334 0.3393299490670824
head 9.76504803674936 -1.6172128825751342 0.10700538162506534
lclavicle -1.3905039281597178e-15 -1.857843800236193e-15
lhumerus -22.908777526953042 -1.490738547595769 80.32094437214174
lradius 30.170848312512263
lwrist 7.313567839151682
lhand -27.260101000578093 25.45708558775716
lfingers 7.125019999999999
lthumb -0.7369463253271195 55.144847700879815
rclavicle -1.3882889070967717e-15 -1.8445203425512943e-15
rhumerus -35.872092278545736 -27.60823983686238 -71.68669191523247
rradius 23.210854600406957
rwrist 7.899555747820381
rhand -18.323530668833044 22.52633718345413
rfingers 7.125019999999999
rthumb 8.05684679355489 -7.218560901501684
44
root 0.5195379257207429 17.75996261717858 2.380664940429728 -0.9276969839525842 1.2943558402395248 1.6193712159308609
lfemur 14.070789869124125 -3.6956725735687437 -26.525877043538095
ltibia 18.09713621202657
lfoot -6.798625340879771 -5.96322214419369
ltoes -4.465729471948817
rfemur -25.93915478173829 5.7081997148861605 18.72892327271662
rtibia 25.15195312306146
rfoot -6.696269814733152 -10.84924653850413
rtoes 0.3996303677111892
lowerback 10.143572637170104 -1.2797306937651691 -3.1079451304852563
upperback 0.3742755441359529 -1.7769542216743401 1.6148515070528218
thorax -4.821108110912441 -0.9850717878772239 3.8175121167254895
lowerneck -16.028728176806865 -2.452948780407481 -2.786123521419003
upperneck 22.44395957436216 -3.011708060598174 0.3014363653585508
head 9.728656461684771 -1.6181819856538597 0.11345604252733937
lclavicle -1.390502627443988e-15 -1.8578433964514627e-15
lhumerus -24.068132283286936 -1.241048219249687 80.5036443889057
lradius 30.46717657559423
lwrist 7.380012651951505
lhand -27.254472722914368 25.49519703263475
lfingers 7.125019999999999
lthumb -0.7496406297874653 55.175714192825275
rclavicle -1.3882908274097158e-15 -1.844522234496517e-15
rhumerus -36.86400109336975 -29.726332699119816 -69.68858011663679
rradius 21.936602982789964
rwrist 10.051079653531577
rhand -18.27009858989187 22.55139607751457
rfingers 7.125019999999999
rthumb 8.107240628585483 -7.204567790770336
45
root 0.44167053491958796 17.77763009504174 3.005018662664149 -1.2282035713713717 1.1675162035930342 0.690010129017693
lfemur 14.38116134635438 -4.84902292828674 -25.716820054522604
ltibia 22.35090909841964
lfoot -5.531525221313114 -6.642069734228333
ltoes -4.869071397919297
rfemur -25.533294064896317 5.0652017121261474 20.354663924748046
rtibia 28.682426475744023
rfoot -5.5421952238757655 -8.54456774779752
rtoes 1.274563302573128
lowerback 10.197758801998544 -1.3265164846413742 -2.4990688456609997
upperback 0.36747183916345283 -1.7505323558149564 1.8936816039056574
thorax -4.813354905275171 -1.004945980421924 3.836072178552059
lowerneck -15.9859188377252 -2.398110926259508 -2.755050875528434
upperneck 22.496747815227465 -2.9670397367463406 0.24435587032982037
head 9.703800968594328 -1.6421863451325494 0.13610568858000605
lclavicle -1.3905046757377306e-15 -1.8578451676220807e-15
lhumerus -25.30902372552874 -0.7317555340601896 80.72919797488427
lradius 30.542918263761976
lwrist 7.221147791356948
lhand -27.233935599335297 25.542406784347957
lfingers 7.125019999999999
lthumb -0.7420093867396241 55.224380437215274
rclavicle -1.3882898574490904e-15 -1.844521294087742e-15
rhumerus -37.819346593762944 -31.84292936271612 -67.5970058994955
rradius 20.502057566738415
rwrist 12.697978629504327
rhand -18.19333108337766 22.560760845388078
rfingers 7.125019999999999
rthumb 8.147661443727756 -7.263380683038227
46
root 0.36339842539585965 17.834222847885513 3.494800894020618 -1.6272095125260804 0.8370746215220055 -0.653125669666246
lfemur 12.976399389979052 -5.376627578981976 -24.183024062688453
ltibia 29.52747626694587
lfoot -3.016285426414771 -7.647076175116297
ltoes -5.172032975613301
rfemur -24.74577154042623 4.773365909372109 21.90419243576125
rtibia 31.309818948597325
rfoot -4.449306142407182 -6.640599755074242
rtoes 2.699543952479247
lowerback 10.277139522101239 -1.3391913657480456 -1.7176228531216498
upperback 0.35374909985108904 -1.6376139436860924 2.1877676140716487
thorax -4.845480634329359 -0.9779285045167203 3.77743105871268
lowerneck -15.871960955407838 -2.389241455194431 -2.7434435318825585
upperneck 22.681611407399508 -2.927988768793905 0.10560737994011254
head 9.69501656816876 -1.6761974487602025 0.16157079656634554
lclavicle -1.3905060465233649e-15 -1.857844556195985e-15
lhumerus -26.47412871444354 -0.04964863650392193 80.98912063368692
lradius 30.425321942338243
lwrist 6.997725904143918
lhand -27.197485236926134 25.61789858749077
lfingers 7.125019999999999
lthumb -0.7359081972342176 55.26220302733474
rclavicle -1.3882909329767015e-15 -1.8445224129145876e-15
rhumerus -38.70865225173763 -33.42599476344704 -65.91373478557449
rradius 19.065630066940997
rwrist 15.066121058764455
rhand -18.09917235143733 22.55122815394932
rfingers 7.125019999999999
rthumb 8.201041347240087 -7.323510759367538
